<svg width="31" height="23" viewBox="0 0 31 23" fill="none" xmlns="http://www.w3.org/2000/svg">
<path d="M30.7133 0.685791L29.7656 3.15774H27.3052L22.874 17.9895H5.98755L0.101074 4.39372H21.545L20.8256 6.86567H3.93781L7.68398 15.5175H20.985L25.3626 0.685791H30.7133ZM10.9429 19.2254C9.88679 19.2254 9.02965 20.056 9.02965 21.0794C9.02965 22.104 9.88679 22.9334 10.9429 22.9334C11.999 22.9334 12.8562 22.104 12.8562 21.0794C12.8562 20.056 11.999 19.2254 10.9429 19.2254ZM19.7439 10.5736L17.3205 19.2254C16.2643 19.2254 15.4072 20.0548 15.4072 21.0794C15.4072 22.104 16.2643 22.9334 17.3205 22.9334C18.3766 22.9334 19.2337 22.104 19.2337 21.0794C19.2337 20.056 18.3766 19.2254 17.3205 19.2254L19.7439 10.5736Z" fill="#2F3035"/>
</svg>
