<svg width="26" height="23" viewBox="0 0 26 23" fill="none" xmlns="http://www.w3.org/2000/svg">
<path d="M12.9593 8.82239C13.198 7.71496 14.5378 2.66328 18.4511 2.66328C20.7164 2.66328 23.1633 4.19687 23.1633 7.61015C23.1633 11.4733 19.4623 15.9851 12.9593 20.0975C6.45619 15.9851 2.75517 11.4733 2.75517 7.61015C2.75517 4.16523 5.17252 2.6613 7.42558 2.6613C11.4286 2.6613 12.6756 7.72979 12.9593 8.82239ZM0.714355 7.61015C0.714355 11.6325 3.8368 16.9848 12.9593 22.4389C22.0817 16.9848 25.2041 11.6325 25.2041 7.61015C25.2041 -0.262526 15.3593 -1.31657 12.9593 3.91507C10.5735 -1.28789 0.714355 -0.307021 0.714355 7.61015Z" fill="#2F3035"/>
</svg>
